<svg width="136" height="19" viewBox="0 0 136 19" fill="none" xmlns="http://www.w3.org/2000/svg">
<path d="M9.9275 18.1188C7.03 18.1188 4.76583 17.3983 3.135 15.9575C1.52 14.5008 0.7125 12.3475 0.7125 9.4975C0.7125 6.66333 1.53583 4.52583 3.1825 3.085C4.845 1.62833 7.25167 0.899999 10.4025 0.899999H19.4275V3.9875H10.6638C8.58958 3.9875 7.05375 4.42292 6.05625 5.29375C5.07458 6.16458 4.58375 7.56583 4.58375 9.4975C4.58375 11.3342 5.01917 12.6958 5.89 13.5825C6.76083 14.4533 8.03542 14.9283 9.71375 15.0075V8.405H20.3538V18.1188H9.9275ZM13.2763 15.0312H16.5538V11.4925H13.2763V15.0312ZM23.9105 18V1.01875H42.5305V4.10625H27.7105V7.85875H41.153V10.9462H27.7105V14.9125H42.5305V18H23.9105ZM45.3699 18V1.06625H49.1699V7.9775H54.8224L60.4037 1.06625H65.1299L58.1474 9.52125L65.1299 18H60.4037L54.7987 11.065H49.1699V18H45.3699ZM66.6763 9.61625V1.01875H87.5763V9.61625H83.7288V4.10625H78.5513V18H74.7513V4.10625H70.5238V9.61625H66.6763ZM99.1123 18.1188C96.0881 18.1188 93.7448 17.3983 92.0823 15.9575C90.4198 14.5008 89.5885 12.3475 89.5885 9.4975C89.5885 6.66333 90.4198 4.52583 92.0823 3.085C93.7448 1.62833 96.1435 0.899999 99.2785 0.899999H103.554C106.689 0.899999 109.087 1.62833 110.75 3.085C112.412 4.52583 113.244 6.66333 113.244 9.4975C113.244 12.3475 112.412 14.5008 110.75 15.9575C109.087 17.3983 106.728 18.1188 103.672 18.1188H99.1123ZM99.5398 3.9875C97.7823 3.9875 96.4127 4.30417 95.431 4.9375C94.4494 5.57083 93.8319 6.57625 93.5785 7.95375H109.254C109 6.57625 108.383 5.57083 107.401 4.9375C106.419 4.30417 105.05 3.9875 103.292 3.9875H99.5398ZM99.611 15.0312H103.292C105.066 15.0312 106.435 14.7146 107.401 14.0812C108.383 13.4479 109 12.4346 109.254 11.0412H93.5785C93.8319 12.4346 94.4494 13.4479 95.431 14.0812C96.4127 14.7146 97.806 15.0312 99.611 15.0312ZM115.848 18V1.01875H130.074C131.832 1.01875 133.193 1.46208 134.159 2.34875C135.141 3.23542 135.632 4.58125 135.632 6.38625C135.632 7.92208 135.276 9.12542 134.563 9.99625C133.851 10.8671 132.837 11.4133 131.523 11.635L135.442 18H131.119L127.486 11.7537H119.648V18H115.848ZM129.623 4.10625H119.648V8.6425L129.623 8.66625C130.32 8.66625 130.85 8.49208 131.214 8.14375C131.594 7.79542 131.784 7.20958 131.784 6.38625C131.784 5.54708 131.594 4.96125 131.214 4.62875C130.85 4.28042 130.32 4.10625 129.623 4.10625Z" fill="#D9D9D9"/>
</svg>
